<svg width="47" height="47" viewBox="0 0 47 47" fill="none" xmlns="http://www.w3.org/2000/svg">
<path d="M23.5 47C36.4787 47 47 36.4787 47 23.5C47 10.5213 36.4787 0 23.5 0C10.5213 0 0 10.5213 0 23.5C0 36.4787 10.5213 47 23.5 47Z" fill="white"/>
<path d="M16.6024 12.8516C17.6157 12.8516 18.5406 12.9418 19.3772 13.1204C20.2138 13.299 20.9282 13.5923 21.5242 14.0002C22.1202 14.4082 22.5826 14.9496 22.9116 15.6264C23.2406 16.3032 23.4042 17.138 23.4042 18.1325C23.4042 19.206 23.1598 20.1008 22.6729 20.8171C22.186 21.5334 21.464 22.12 20.5109 22.5768C21.8231 22.9547 22.8026 23.6164 23.4493 24.5602C24.096 25.504 24.4194 26.6432 24.4194 27.9762C24.4194 29.0496 24.2107 29.9802 23.7934 30.7661C23.376 31.5519 22.8139 32.193 22.107 32.6893C21.4001 33.1875 20.5955 33.5541 19.6912 33.7929C18.7813 34.0316 17.8432 34.1519 16.9032 34.1501H6.58008V12.8516H16.6024ZM16.0064 21.4714C16.8411 21.4714 17.5273 21.2721 18.065 20.8754C18.6027 20.4768 18.8715 19.832 18.8696 18.9371C18.8696 18.4408 18.7794 18.0328 18.6008 17.7151C18.4222 17.3974 18.1834 17.1474 17.8845 16.9688C17.5856 16.7902 17.2434 16.6661 16.8562 16.5965C16.4576 16.527 16.0534 16.4912 15.6473 16.4931H11.265V21.4751L16.0064 21.4714ZM16.2752 30.5085C16.717 30.5104 17.157 30.4653 17.5875 30.375C18.0048 30.2848 18.3733 30.1363 18.691 29.9276C19.0088 29.7189 19.2626 29.435 19.4524 29.0778C19.6404 28.7206 19.7363 28.2619 19.7363 27.7054C19.7363 26.6132 19.428 25.8311 18.8114 25.3648C18.1947 24.8967 17.3788 24.6636 16.3655 24.6636H11.265V30.5104L16.2752 30.5085ZM30.3113 30.0611C30.9467 30.6777 31.8623 30.986 33.0561 30.986C33.9115 30.986 34.6466 30.7717 35.2632 30.3449C35.8799 29.9182 36.2577 29.4651 36.3969 28.9876H40.1249C39.5289 30.8375 38.6134 32.1591 37.3801 32.9544C36.1468 33.7496 34.656 34.1482 32.9057 34.1482C31.6931 34.1482 30.5989 33.9545 29.6251 33.5673C28.6513 33.18 27.8259 32.6273 27.1491 31.911C26.4723 31.1947 25.9497 30.3412 25.5831 29.3467C25.2165 28.3521 25.0323 27.258 25.0323 26.0661C25.0323 24.9136 25.2203 23.8402 25.5982 22.8456C25.976 21.8511 26.5137 20.992 27.2093 20.2663C27.9049 19.5406 28.7359 18.9691 29.7003 18.5517C30.6647 18.1344 31.7345 17.9257 32.9076 17.9257C34.2198 17.9257 35.3629 18.1795 36.3386 18.6871C37.3124 19.1947 38.1133 19.8752 38.7393 20.7306C39.3654 21.586 39.8185 22.5599 40.0967 23.654C40.3749 24.7482 40.4746 25.8912 40.3956 27.085H29.2698C29.3281 28.4518 29.6759 29.4463 30.3113 30.0611ZM35.0997 21.9489C34.5921 21.3924 33.8213 21.1142 32.7873 21.1142C32.1105 21.1142 31.5483 21.2288 31.1028 21.4563C30.6553 21.6857 30.2981 21.9677 30.0293 22.3061C29.7605 22.6445 29.5725 23.0017 29.4634 23.3796C29.3544 23.7574 29.2886 24.0958 29.2698 24.3929H36.16C35.9588 23.3213 35.6054 22.5054 35.0997 21.9489ZM28.5441 13.9326H37.1526V16.3202H28.5441V13.9326Z" fill="#171717"/>
</svg>
