<svg width="47" height="47" viewBox="0 0 47 47" fill="none" xmlns="http://www.w3.org/2000/svg">
<path d="M22.4327 19.554C19.6538 20.3706 16.3423 20.7916 12.5098 20.819C13.303 17.58 15.4826 14.8853 18.3907 13.4087C19.9123 15.3984 21.2577 17.4487 22.4327 19.554ZM24.3225 23.3335C24.0797 22.7852 23.8251 22.2388 23.5568 21.6983C20.3804 22.6971 16.5832 23.2043 12.1906 23.2102L12.175 23.5C12.175 26.2495 13.162 28.7718 14.7991 30.736C17.2784 27.0133 20.4607 24.5399 24.3225 23.3335ZM16.5479 32.4222C19.6205 34.8211 23.737 35.534 27.5616 34.0593C27.0681 31.1453 26.2887 28.3018 25.2312 25.5367C21.669 26.5981 18.798 28.8932 16.5479 32.4222ZM30.4031 14.5426C28.4898 13.066 26.1007 12.175 23.5 12.175C22.5404 12.175 21.6122 12.3081 20.7231 12.5353C22.2192 14.5485 23.545 16.6204 24.7083 18.7471C27.1288 17.721 29.0245 16.3188 30.4031 14.5426ZM47 23.5C47 36.4779 36.4779 47 23.5 47C10.5221 47 0 36.4779 0 23.5C0 10.5221 10.5221 0 23.5 0C36.4779 0 47 10.5221 47 23.5ZM37.2083 23.5C37.2083 15.9291 31.069 9.79167 23.5 9.79167C15.931 9.79167 9.79167 15.9291 9.79167 23.5C9.79167 31.0709 15.931 37.2083 23.5 37.2083C31.069 37.2083 37.2083 31.0709 37.2083 23.5ZM25.803 20.8582C26.1105 21.4927 26.4003 22.1331 26.6784 22.7774C29.1459 22.3524 31.8503 22.3779 34.7918 22.8596C34.6488 20.3295 33.6833 18.0147 32.1402 16.1954C30.5598 18.1635 28.4389 19.7165 25.803 20.8582ZM27.5929 25.0334C28.5505 27.5968 29.2869 30.2249 29.7843 32.9118C32.3536 31.1884 34.1729 28.4389 34.6742 25.2566C32.0951 24.8101 29.7353 24.7318 27.5929 25.0334Z" fill="white"/>
</svg>
