<svg width="46" height="48" viewBox="0 0 46 48" fill="none" xmlns="http://www.w3.org/2000/svg">
<path d="M23 0C10.2956 0 0 10.5578 0 23.5793C0 36.6009 10.3004 47.1587 23 47.1587C35.7044 47.1587 46 36.6009 46 23.5793C46 10.5578 35.7044 0 23 0ZM29.9039 44.7574C28.7958 44.9788 28.4055 44.281 28.4055 43.6843C28.4055 42.9529 28.4296 40.5468 28.4296 37.5633C28.4296 35.4797 27.731 34.1179 26.9506 33.4249C31.8069 32.8763 36.8992 30.9852 36.8992 22.4148C36.8992 19.9799 36.0561 17.9829 34.659 16.4237C34.8806 15.8607 35.6322 13.5942 34.4422 10.5193C34.4422 10.5193 32.6163 9.91776 28.4537 12.8098C26.7145 12.3142 24.85 12.064 23 12.0543C21.1452 12.064 19.2807 12.3094 17.5463 12.8098C13.3837 9.92257 11.553 10.5193 11.553 10.5193C10.3678 13.5942 11.1146 15.8607 11.341 16.4237C9.94868 17.9829 9.10075 19.9751 9.10075 22.4148C9.10075 30.9659 14.1883 32.8812 19.0253 33.4442C18.4039 34.0024 17.8402 34.9841 17.6426 36.4277C16.3997 36.9955 13.244 37.982 11.3025 34.5702C11.3025 34.5702 10.151 32.4288 7.96376 32.27C7.96376 32.27 5.83431 32.2411 7.81441 33.627C7.81441 33.627 9.24529 34.3104 10.2329 36.8896C10.2329 36.8896 11.5145 41.2302 17.5752 39.8828C17.5848 41.7451 17.6041 43.1502 17.6041 43.6795C17.6041 44.2714 17.209 44.9596 16.1154 44.7526C7.45308 41.8028 1.21408 33.4394 1.21408 23.5793C1.20926 11.2603 10.9652 1.2704 23 1.2704C35.0348 1.2704 44.7907 11.2603 44.7907 23.589C44.7907 33.4442 38.5517 41.8028 29.9039 44.7574Z" fill="white"/>
</svg>
