<svg width="47" height="47" viewBox="0 0 47 47" fill="none" xmlns="http://www.w3.org/2000/svg">
<path d="M23.5 0C10.5221 0 0 10.5221 0 23.5C0 36.4779 10.5221 47 23.5 47C36.4779 47 47 36.4779 47 23.5C47 10.5221 36.4779 0 23.5 0ZM19.5833 31.3333H15.6667V19.5833H19.5833V31.3333ZM17.625 17.8385C16.4363 17.8385 15.4708 16.8671 15.4708 15.6667C15.4708 14.4682 16.4343 13.4949 17.625 13.4949C18.8157 13.4949 19.7792 14.4682 19.7792 15.6667C19.7792 16.8671 18.8137 17.8385 17.625 17.8385ZM33.2917 31.3333H29.3789V25.7305C29.3789 22.0469 25.4583 22.3583 25.4583 25.7305V31.3333H21.5417V19.5833H25.4583V21.7238C27.166 18.5591 33.2917 18.3241 33.2917 24.7553V31.3333Z" fill="white"/>
</svg>
